<svg width="75" height="79" viewBox="0 0 75 79" fill="none" xmlns="http://www.w3.org/2000/svg">
<g clip-path="url(#clip0_11_19)">
<path fill-rule="evenodd" clip-rule="evenodd" d="M37.5 0.974365C16.7906 0.974365 0 18.6572 0 40.4744C0 57.9268 10.7438 72.7327 25.6438 77.9566C27.5188 78.322 28.2063 77.1008 28.2063 76.0573C28.2063 75.1159 28.1719 72.0052 28.1563 68.7037C17.725 71.0935 15.5219 64.0427 15.5219 64.0427C13.8156 59.4772 11.3594 58.2625 11.3594 58.2625C7.95625 55.8102 11.6156 55.8629 11.6156 55.8629C15.3813 56.1427 17.3625 59.9347 17.3625 59.9347C20.7063 65.9716 26.1344 64.227 28.275 63.2165C28.6125 60.6622 29.5844 58.9209 30.6563 57.9334C22.3281 56.936 13.5719 53.5489 13.5719 38.4138C13.5719 34.1017 15.0375 30.5763 17.4375 27.8113C17.0469 26.814 15.7625 22.7981 17.8 17.357C17.8 17.357 20.95 16.2971 28.1156 21.4057C31.1063 20.5302 34.3125 20.0924 37.5 20.0759C40.6875 20.0924 43.8969 20.5302 46.8938 21.4057C54.05 16.2938 57.1969 17.357 57.1969 17.357C59.2375 22.7981 57.9531 26.814 57.5656 27.8113C59.9688 30.5763 61.425 34.1017 61.425 38.4138C61.425 53.5851 52.6531 56.9261 44.3031 57.9037C45.6469 59.1282 46.8469 61.5345 46.8469 65.2178C46.8469 70.5042 46.8031 74.7571 46.8031 76.0573C46.8031 77.1073 47.4781 78.3417 49.3781 77.9533C64.2719 72.7228 75.0031 57.9235 75.0031 40.4777C75 18.6605 58.2094 0.974365 37.5 0.974365Z" fill="white"/>
<path d="M14.2032 57.6897C14.1219 57.8872 13.8282 57.9464 13.5594 57.8115C13.2875 57.6831 13.1344 57.4132 13.2219 57.219C13.3032 57.0182 13.5969 56.9622 13.8688 57.0972C14.1407 57.2223 14.2969 57.4922 14.2032 57.6897Z" fill="white"/>
<path d="M15.7223 59.4738C15.5442 59.6482 15.1942 59.566 14.9567 59.2927C14.7098 59.0162 14.6661 58.6476 14.8473 58.4731C15.0317 58.2987 15.3692 58.3809 15.6161 58.6574C15.8629 58.9307 15.9098 59.296 15.7223 59.4738Z" fill="white"/>
<path d="M17.1996 61.7485C16.9684 61.9163 16.5934 61.7583 16.3621 61.4094C16.1309 61.0572 16.1309 60.6359 16.3684 60.468C16.5996 60.3001 16.9715 60.4516 17.2059 60.8005C17.434 61.156 17.434 61.5773 17.1996 61.7485Z" fill="white"/>
<path d="M19.2245 63.9472C19.0183 64.1875 18.5808 64.1217 18.262 63.7958C17.9339 63.4765 17.8433 63.0256 18.0495 62.7853C18.2589 62.545 18.6995 62.6141 19.0214 62.9367C19.3464 63.256 19.4433 63.7102 19.2245 63.9472Z" fill="white"/>
<path d="M22.0224 65.2212C21.9317 65.5306 21.5099 65.6722 21.0849 65.5405C20.6599 65.4055 20.3817 65.0435 20.4692 64.7308C20.5567 64.4181 20.9817 64.2732 21.4099 64.4148C21.8317 64.5464 22.1099 64.9085 22.0224 65.2212Z" fill="white"/>
<path d="M25.091 65.4581C25.1004 65.784 24.741 66.0539 24.2941 66.0605C23.8473 66.0704 23.4816 65.8071 23.4785 65.4878C23.4785 65.1586 23.8316 64.892 24.2785 64.8821C24.7254 64.8722 25.091 65.1356 25.091 65.4581Z" fill="white"/>
<path d="M27.9472 64.948C28.0004 65.264 27.691 65.5931 27.2472 65.6787C26.8129 65.7643 26.4097 65.5668 26.3535 65.2508C26.3004 64.9249 26.616 64.5991 27.0504 64.5135C27.491 64.4312 27.891 64.6221 27.9472 64.948Z" fill="white"/>
</g>
<defs>
<clipPath id="clip0_11_19">
<rect width="75" height="79" fill="white"/>
</clipPath>
</defs>
</svg>
