<svg width="75" height="79" viewBox="0 0 75 79" fill="none" xmlns="http://www.w3.org/2000/svg">
<path d="M63.905 67.3163H52.7916V48.9837C52.7916 44.6117 52.7177 38.9862 47.0113 38.9862C41.2236 38.9862 40.3366 43.7474 40.3366 48.6683V67.3163H29.2268V29.6154H39.8968V34.766H40.0446C42.2215 30.8496 46.2647 28.5098 50.5704 28.6772C61.8354 28.6772 63.9087 36.4829 63.9087 46.6322L63.905 67.3163ZM16.6868 24.461C13.124 24.461 10.2375 21.4204 10.2375 17.6675C10.2375 13.9145 13.124 10.874 16.6868 10.874C20.2496 10.874 23.1361 13.9145 23.1361 17.6675C23.1361 21.4204 20.2496 24.461 16.6868 24.461ZM22.2417 67.3163H11.1171V29.6154H22.2417V67.3163ZM69.4451 0.00442488H5.5327C2.51318 -0.0306131 0.0369586 2.51938 0 5.70005V73.3C0.0369586 76.4846 2.51318 79.0346 5.5327 78.9996H69.4451C72.472 79.0385 74.9593 76.4885 75 73.3V5.69615C74.9557 2.5077 72.4683 -0.0422926 69.4451 0.000531586" fill="white"/>
</svg>
