<svg width="75" height="79" viewBox="0 0 75 79" fill="none" xmlns="http://www.w3.org/2000/svg">
<path fill-rule="evenodd" clip-rule="evenodd" d="M63.9465 11.4813C56.9277 4.08167 47.5965 0.00329167 37.6559 0C17.1715 0 0.499609 17.5578 0.490234 39.1445C0.487109 46.0438 2.19961 52.7786 5.45273 58.7168L0.177734 79L19.8777 73.5556C25.3059 76.6761 31.4184 78.3186 37.6371 78.3219H37.6527C58.134 78.3219 74.809 60.7609 74.8184 39.1741C74.8246 28.7165 70.9621 18.8777 63.9465 11.4813ZM37.6559 71.709H37.6434C32.0996 71.709 26.6652 70.1388 21.9215 67.173L20.7934 66.4686L9.10273 69.6978L12.2246 57.6897L11.4902 56.4587C8.39648 51.2776 6.76523 45.29 6.76836 39.1445C6.77461 21.2049 20.634 6.60967 37.6715 6.60967C45.9215 6.60967 53.6777 10.0001 59.509 16.1489C65.3402 22.301 68.5496 30.4743 68.5465 39.1675C68.5371 57.1137 54.6809 71.709 37.6559 71.709ZM54.5996 47.3408C53.6715 46.8503 49.1059 44.4836 48.2527 44.1577C47.4027 43.8318 46.784 43.6673 46.1621 44.6449C45.5402 45.6225 43.7652 47.8279 43.2215 48.483C42.6809 49.1347 42.1371 49.217 41.209 48.7265C40.2809 48.2361 37.2871 47.2058 33.7402 43.8713C30.9809 41.2775 29.1152 38.0747 28.5746 37.0938C28.034 36.1129 28.5184 35.5862 28.9809 35.099C29.3996 34.6613 29.909 33.9568 30.3746 33.3841C30.8434 32.8179 30.9965 32.4098 31.309 31.7547C31.6184 31.103 31.4652 30.5302 31.2309 30.0398C30.9965 29.5526 29.1402 24.7369 28.3684 22.7783C27.6152 20.8692 26.8496 21.1292 26.2777 21.0996C25.7371 21.07 25.1184 21.0667 24.4965 21.0667C23.8777 21.0667 22.8715 21.3102 22.0215 22.2912C21.1715 23.2721 18.7715 25.6388 18.7715 30.4512C18.7715 35.2669 22.0996 39.918 22.5621 40.5698C23.0246 41.2215 29.109 51.1031 38.4246 55.3395C40.6402 56.3468 42.3715 56.9491 43.7184 57.4001C45.9434 58.144 47.9684 58.0387 49.5684 57.7885C51.3527 57.5087 55.0621 55.4218 55.8371 53.1374C56.6121 50.853 56.6121 48.8911 56.3777 48.4862C56.1465 48.0748 55.5277 47.8312 54.5996 47.3408Z" fill="white"/>
</svg>
